HIERARCHY
ROOT Hips
{
    OFFSET 0.000000 0.000000 0.000000
    CHANNELS 6 Xposition Yposition Zposition Zrotation Xrotation Yrotation
        JOINT Chest
        {
            OFFSET -0.000000 32.910728 -0.000000
            CHANNELS 3 Zrotation Xrotation Yrotation
            JOINT Neck
            {
                OFFSET -0.000000 24.872103 0.000000
                CHANNELS 3 Zrotation Xrotation Yrotation
                JOINT Head
                {
                    OFFSET -0.000000 10.694444 0.000000
                    CHANNELS 3 Zrotation Xrotation Yrotation
                    End Site
                    {
                        OFFSET -0.000000 16.527781 0.000000
                    }
                }
            }
            JOINT LeftCollar
            {
                OFFSET -0.000000 24.872103 0.000000
                CHANNELS 3 Zrotation Xrotation Yrotation
                JOINT LeftShoulder
                {
                    OFFSET 20.500000 -0.000000 0.000000
                    CHANNELS 3 Zrotation Xrotation Yrotation
                    JOINT LeftElbow
                    {
                        OFFSET 20.261999 0.000000 0.000000
                        CHANNELS 3 Zrotation Xrotation Yrotation
                        JOINT LeftWrist
                        {
                            OFFSET 25.372869 0.000000 0.000000
                            CHANNELS 3 Zrotation Xrotation Yrotation
                            End Site
                            {
                                OFFSET 0.000000 -14.583331 0.000000
                            }
                        }
                    }
                }
            }
            JOINT RightCollar
            {
                OFFSET -0.000000 24.872103 0.000000
                CHANNELS 3 Zrotation Xrotation Yrotation
                JOINT RightShoulder
                {
                    OFFSET -20.500000 0.000000 0.000000
                    CHANNELS 3 Zrotation Xrotation Yrotation
                    JOINT RightElbow
                    {
                        OFFSET -20.261999 0.000000 0.000000
                        CHANNELS 3 Zrotation Xrotation Yrotation
                        JOINT RightWrist
                        {
                            OFFSET -25.372869 0.000000 0.000000
                            CHANNELS 3 Zrotation Xrotation Yrotation
                            End Site
                            {
                                OFFSET -0.000000 -14.583331 0.000000
                            }
                        }
                    }
                }
            }
        }
    JOINT LeftHip
    {
        OFFSET 11.666668 0.000000 0.000000
        CHANNELS 3 Zrotation Xrotation Yrotation
        JOINT LeftKnee
        {
            OFFSET -0.000000 -37.459236 0.000000
            CHANNELS 3 Zrotation Xrotation Yrotation
            JOINT LeftAnkle
            {
                OFFSET -0.000000 -38.972313 0.000000
                CHANNELS 3 Zrotation Xrotation Yrotation
                End Site
                {
                    OFFSET -0.000000 -4.861111 16.527781
                }
            }
        }
    }
    JOINT RightHip
    {
        OFFSET -11.666668 0.000000 0.000000
        CHANNELS 3 Zrotation Xrotation Yrotation
        JOINT RightKnee
        {
            OFFSET -0.000000 -37.459236 0.000000
            CHANNELS 3 Zrotation Xrotation Yrotation
            JOINT RightAnkle
            {
                OFFSET -0.000000 -38.972313 0.000000
                CHANNELS 3 Zrotation Xrotation Yrotation
                End Site
                {
                    OFFSET -0.000000 -4.861111 16.527781
                }
            }
        }
    }
}
MOTION
Frames:    13
Frame Time:    0.010000
-157.812454    85.629944    39.291691    2.245540    -3.191893    61.336624    1.264418    24.257671    -13.908035    2.873900    1.862553    5.329299    -3.734048    -22.545979    4.630135    -28.649002    -2.402260    9.410927    19.477043    65.940071    -75.893272    47.858433    -17.893530    -40.573143    170.940231    -3.538309    -122.580948    26.166990    -5.578723    -23.912045    19.673973    50.621441    22.312696    -21.298586    -17.219757    81.850426    -107.641846    -3.880304    16.615070    5.067739    -12.156063    5.180596    -12.691333    45.845428    14.956576    0.744652    4.761518    0.510600    -9.694881    -15.302309    0.783896    1.524837    34.014446    7.584819    7.310612    -7.066967    -8.197399    
-157.926468    86.612602    39.092388    1.661503    -2.359066    61.043972    0.979889    23.547970    -13.109353    2.398481    0.517436    5.276986    -3.021499    -21.158098    4.722759    -28.332361    -2.598926    11.246745    36.445927    65.380196    -93.858299    51.331654    -18.639341    -35.084900    170.077866    0.125915    -121.532036    26.099806    -5.617409    -24.136465    17.685064    51.041607    24.698650    -21.355228    -18.212732    80.981094    -93.333702    -9.098985    19.731514    5.531845    -12.632754    6.263673    -12.457861    44.582222    14.557689    -0.407209    7.446884    -1.843320    -9.761629    -15.782898    -0.593737    0.218072    32.296165    7.905653    15.509052    -5.114720    -9.088700    
-157.870605    87.586365    39.016651    1.796719    -1.978767    60.599155    0.183002    23.498375    -12.195739    2.991265    0.109464    5.394220    -3.828227    -20.711060    4.697546    -27.463421    -2.515079    10.519484    29.829742    67.481445    -88.142754    51.239895    -18.575323    -37.631439    171.831451    1.794310    -122.672035    26.224432    -5.629379    -23.915831    17.087673    51.811264    25.905415    -23.713930    -21.076685    78.602837    -75.152039    -13.124182    24.385750    6.157237    -12.382873    9.152984    -10.741849    44.003223    12.247648    -0.286270    9.745971    -5.377163    -9.751399    -14.957243    -0.325477    -0.213918    27.548885    -16.070225    14.187943    8.179920    13.299022    
-158.084030    88.548920    38.568336    1.132222    -1.525457    61.373131    0.535895    22.533888    -12.825642    3.573663    -0.072848    4.925957    -4.077577    -20.846945    4.171881    -26.920677    -2.416672    10.052886    32.073952    68.505913    -90.552330    52.169064    -19.082462    -37.662125    173.109436    4.081586    -124.397461    25.718134    -5.564488    -24.641983    15.205824    54.398342    29.453163    -22.825850    -18.471216    78.577095    -88.859528    -10.230824    18.118019    6.213784    -12.876235    7.338621    -11.276131    42.155697    12.531156    -4.122106    13.331422    -4.373536    -10.100852    -15.012924    0.511269    0.843321    25.491142    -19.285398    12.695592    11.453297    13.335793    
-158.175629    89.446655    38.303745    0.918052    -1.105963    61.754749    0.420335    22.408669    -12.692390    3.936442    -0.991332    4.830081    -4.367721    -20.399143    4.009426    -26.488609    -2.388384    10.307524    35.522964    69.068497    -94.130775    54.723682    -19.649506    -35.345840    174.631760    0.666684    -117.263168    25.521208    -5.559301    -24.393188    14.314209    55.205578    31.195597    -22.534367    -18.183666    78.167786    -87.888405    -10.345341    17.202818    6.596619    -13.529094    7.852838    -10.737405    41.486511    13.959786    -3.144033    16.369375    -9.015457    -10.337951    -14.519016    0.183557    1.083371    24.199963    -10.243784    27.460840    12.047130    -3.911688    
-158.214432    90.282867    38.094044    0.898707    -0.999008    61.652386    0.469922    22.515034    -12.135603    2.750265    -1.535189    4.305628    -2.755534    -20.975138    3.759793    -26.454515    -2.448817    10.594913    35.301025    69.779442    -93.955872    54.768749    -19.868187    -37.607475    177.838638    14.915543    -133.024704    25.633080    -5.571850    -24.078571    13.294627    55.108227    32.219566    -20.939415    -16.364325    79.433807    -92.538589    -7.950065    14.644043    6.922596    -12.768799    8.768875    -9.321700    39.891758    10.800780    2.585264    17.866474    -13.958665    -10.118550    -14.459088    -1.363546    -0.163468    22.366617    -17.838266    -2.412931    10.752349    18.680967    
-158.247833    91.016029    37.816818    1.006303    -0.970454    61.712749    0.576986    22.720709    -11.972567    2.714325    -2.742177    4.062355    -2.749573    -19.860411    3.517559    -26.078947    -2.435259    10.684361    35.773525    70.768539    -94.814293    56.004009    -20.366087    -36.837326    174.304276    14.461407    -131.306091    25.749783    -5.510636    -23.392172    14.637501    54.736923    31.478718    -18.954367    -14.505356    80.205910    -95.996895    -6.918215    13.465652    7.394396    -12.814985    9.403895    -8.579141    39.583977    8.828646    1.176380    19.329729    -14.365882    -10.099655    -13.739539    0.001932    0.341284    20.714853    -18.809238    8.643778    18.604561    10.956986    
-158.255844    91.646194    37.582218    1.264661    -0.914545    61.804188    0.423931    23.315750    -11.143603    2.919541    -3.384679    3.880546    -3.501592    -19.907898    3.180407    -26.026794    -2.453940    10.586457    33.073841    71.503731    -92.108490    56.807884    -20.655382    -36.897369    173.249039    12.989847    -128.627365    25.481266    -5.312968    -22.923018    15.315588    55.020840    32.010681    -17.486111    -13.586699    80.348999    -99.671036    -4.939498    13.160253    7.458534    -12.066613    9.545346    -7.742325    38.519356    5.658648    -5.518552    20.437904    -9.870493    -10.210135    -13.403605    0.589370    0.894643    22.124844    0.275240    13.823468    11.586163    -10.137279    
-158.194870    92.154182    37.468159    1.762515    -1.117220    62.013851    0.666908    24.274643    -10.588592    2.795299    -4.600461    3.249118    -3.449668    -19.447060    2.550798    -26.046602    -2.502727    10.933673    35.496319    71.293098    -94.621651    58.025452    -20.819380    -35.801586    172.282135    13.153955    -127.584618    25.522015    -5.282129    -23.044195    14.128465    54.682865    33.164471    -16.107874    -12.647571    81.027328    -102.110786    -4.100307    13.554227    7.913972    -11.604198    10.572479    -6.465733    38.662029    1.609672    -1.894944    20.442915    -12.182246    -10.285457    -13.303276    1.941927    1.763788    22.996843    -0.605311    15.781565    10.947025    -12.225773    
-158.372345    92.546600    37.120152    0.891244    -0.223432    63.351791    0.801008    23.415285    -10.837388    3.322665    -5.414050    2.861661    -4.936039    -18.824934    1.888578    -25.987055    -2.519782    10.822481    40.986916    70.777023    -100.327370    59.546448    -20.586193    -33.676994    171.351303    13.279777    -126.202065    25.444202    -5.292030    -23.256453    14.270089    54.417332    33.363533    -15.053629    -12.026614    81.216606    -104.896217    -3.794414    14.359247    7.261705    -13.215513    7.856924    -6.461275    38.387081    1.430190    -2.869509    20.202604    -11.377012    -10.595661    -13.349726    0.525018    0.673315    20.489456    -12.978325    -6.512677    12.158156    10.591335    
-158.544830    92.805794    36.915443    0.543977    0.034530    63.661915    0.597563    23.214170    -10.203001    3.209697    -6.402561    2.475968    -4.371606    -18.078785    1.601837    -25.870518    -2.614074    11.860901    46.906155    69.036789    -106.199745    61.048489    -20.031389    -31.488995    169.888290    16.142239    -126.260231    25.141911    -5.108475    -22.413799    16.190229    54.406170    32.475712    -14.091768    -11.274213    81.092697    -106.115738    -4.005165    14.537704    7.579773    -14.246399    7.651591    -5.946437    39.292015    -0.746839    -2.578461    18.986620    -9.707038    -10.422811    -14.140789    -0.569627    -0.286345    21.003214    -17.961319    5.854452    15.045719    10.260106    
-158.577805    92.971977    36.775314    0.838321    -0.030463    64.125450    0.901886    23.772287    -9.633086    2.937849    -7.417728    2.049896    -4.526845    -17.232437    1.175766    -26.690670    -2.728358    11.276605    40.008366    69.062332    -98.794823    59.345352    -19.520670    -34.281727    171.574738    18.750813    -128.838455    24.946512    -5.028216    -22.404692    15.856592    54.320267    32.996326    -13.541612    -11.100791    81.069023    -107.692116    -4.166638    14.096520    7.670824    -14.003690    6.868752    -5.427498    39.325783    -0.606827    -1.660303    18.093065    -9.261350    -10.137976    -13.892200    -0.006549    -0.510198    22.669466    -11.072915    -4.075168    8.099564    8.740167    
-158.589844    92.999084    36.608112    1.015010    -0.053873    64.653725    0.897497    23.895193    -9.487395    2.845827    -7.363982    1.643989    -4.643640    -17.599201    0.742899    -26.954714    -2.710573    11.057728    39.319546    68.520500    -97.633568    58.833881    -19.595896    -34.579937    171.599457    18.623613    -129.101837    25.250065    -5.110032    -22.389599    14.324718    54.616787    33.730392    -13.077293    -10.909377    81.701797    -109.876534    -3.438740    13.086280    7.696728    -14.096444    5.770440    -4.949658    40.086945    -3.364201    -5.170451    16.153683    -2.741906    -10.123636    -13.750003    0.585224    -0.316929    25.110979    2.453114    4.441754    4.419657    -7.958557    
